<?xml version="1.0" standalone="no"?>
<!DOCTYPE svg PUBLIC "-//W3C//DTD SVG 20010904//EN"
 "http://www.w3.org/TR/2001/REC-SVG-20010904/DTD/svg10.dtd">
<svg version="1.0" xmlns="http://www.w3.org/2000/svg"
 width="200.000000pt" height="200.000000pt" viewBox="0 0 200.000000 200.000000"
 preserveAspectRatio="xMidYMid meet">
<metadata>
Created by potrace 1.11, written by Peter Selinger 2001-2013
</metadata>
<g transform="translate(0.000000,200.000000) scale(0.100000,-0.100000)"
fill="#000000" stroke="none">
<path d="M705 1862 c-73 -30 -134 -65 -198 -114 l-37 -30 56 -53 56 -53 55 39
c31 21 92 52 137 69 115 44 142 85 95 144 -27 35 -72 34 -164 -2z"/>
<path d="M1214 1870 c-29 -12 -54 -49 -54 -80 0 -37 34 -64 113 -90 38 -12 98
-42 134 -66 36 -24 68 -44 70 -44 3 0 19 14 36 32 17 17 45 39 61 49 l28 17
-63 47 c-76 56 -128 83 -227 119 -40 14 -74 26 -75 25 -1 0 -12 -4 -23 -9z"/>
<path d="M265 1582 c-51 -24 -91 -70 -99 -116 -21 -113 96 -230 195 -197 87
29 139 91 139 166 0 121 -125 199 -235 147z"/>
<path d="M1600 1593 c-24 -9 -70 -55 -86 -85 -21 -40 -17 -107 9 -153 61 -107
205 -113 281 -11 30 39 30 143 0 182 -37 50 -70 68 -131 71 -32 1 -65 0 -73
-4z"/>
<path d="M1801 1216 c-6 -8 -38 -22 -71 -32 l-59 -18 6 -76 c4 -52 0 -101 -11
-157 -19 -94 -11 -124 36 -144 24 -10 35 -9 63 4 52 25 70 94 70 274 0 144 -8
180 -34 149z"/>
<path d="M194 1153 c-15 -144 15 -331 57 -353 32 -18 80 -8 100 20 18 24 18
30 3 110 -10 54 -14 113 -10 161 l5 77 -32 6 c-18 3 -49 15 -70 26 -20 11 -39
20 -41 20 -2 0 -8 -30 -12 -67z"/>
<path d="M426 569 c-20 -16 -26 -29 -26 -59 0 -33 6 -44 48 -81 61 -54 168
-124 237 -155 l55 -24 0 29 c0 15 7 50 15 76 14 49 13 65 -7 65 -17 0 -120 66
-188 120 -69 55 -94 60 -134 29z"/>
<path d="M1509 572 c-15 -9 -50 -36 -78 -59 -28 -23 -78 -54 -111 -70 -50 -23
-59 -31 -54 -48 3 -11 8 -46 11 -78 5 -53 7 -57 27 -51 90 26 224 111 289 183
46 51 49 90 11 120 -32 26 -61 26 -95 3z"/>
<path d="M962 427 c-77 -24 -127 -124 -102 -204 45 -139 234 -162 310 -37 40
64 21 171 -36 211 -59 41 -111 50 -172 30z"/>
</g>
</svg>
