<?xml version="1.0" encoding="utf-8"?>
<svg xmlns="http://www.w3.org/2000/svg" style="margin: auto; display: block; shape-rendering: auto; background: none;" width="280" height="250" preserveAspectRatio="xMidYMid">
<style type="text/css">
  text {
    text-anchor: middle; font-size: 81px; opacity: 0;
  }
</style>
<g style="transform-origin: 140px 125px; transform: scale(1.0125);">
<g transform="translate(140,125)">
  <g transform="translate(0,0)"><g class="path" style="opacity: 1; transform-origin: -111.36px -1.42313px; animation: 0.70922s linear -0.425532s infinite normal forwards running blink-85236a03-5574-4c42-b001-27dbc0fc56e4;"><path d="M3.68-2.72L3.68-2.72L26.80-39.04L10.40-39.04L7.12-28.72L7.12-28.72Q5.92-28.40 4.16-28.72L4.16-28.72L4.40-42.72L35.76-42.72L35.76-42.72Q36.08-41.04 35.76-39.76L35.76-39.76L13.52-4L29.60-4L32.72-14L32.72-14Q33.92-14.32 35.68-14L35.68-14L35.44 0L3.68 0L3.68 0Q3.28-1.20 3.68-2.72" fill="#6418c3" stroke="none" stroke-width="none" transform="translate(-131.05999755859375,19.936874139959166)" style="fill: rgb(100, 24, 195);"></path></g><g class="path" style="opacity: 1; transform-origin: -78.66px -2.06313px; animation: 0.70922s linear -0.382979s infinite normal forwards running blink-85236a03-5574-4c42-b001-27dbc0fc56e4;"><path d="M56.32-29.76L56.32-29.76L56.32-4.08L62.80-2.88L62.80-2.88Q62.88-2.48 62.92-2.16L62.92-2.16L62.92-2.16Q62.96-1.84 62.96-1.44L62.96-1.44L62.96-1.44Q62.96-1.04 62.92-0.60L62.92-0.60L62.92-0.60Q62.88-0.16 62.80 0.32L62.80 0.32L62.80 0.32Q57.76 0.08 52.48 0.08L52.48 0.08L52.48 0.08Q50.64 0.08 48.04 0.12L48.04 0.12L48.04 0.12Q45.44 0.16 42.08 0.24L42.08 0.24L42.08 0.24Q41.84-0.48 41.84-1.28L41.84-1.28L41.84-1.28Q41.84-2 42.08-2.88L42.08-2.88L48.40-3.76L48.40-3.76Q48.56-6 48.64-8.52L48.64-8.52L48.64-8.52Q48.72-11.04 48.72-13.92L48.72-13.92L48.72-30.96L48.72-30.96Q48.72-36.24 48.48-38.80L48.48-38.80L42.16-39.60L42.16-39.60Q42-40 42-40.96L42-40.96L42-40.96Q42-41.36 42-41.76L42-41.76L42-41.76Q42-42.16 42.16-42.64L42.16-42.64L42.16-42.64Q47.60-42.96 55.92-44.32L55.92-44.32L55.92-44.32Q56.64-43.52 56.72-42.72L56.72-42.72L56.72-42.72Q56.32-40.48 56.32-29.76" fill="#6418c3" stroke="none" stroke-width="none" transform="translate(-131.05999755859375,19.936874139959166)" style="fill: rgb(255, 46, 46);"></path></g><g class="path" style="opacity: 1; transform-origin: -80.66px -39.7831px; animation: 0.70922s linear -0.340426s infinite normal forwards running blink-85236a03-5574-4c42-b001-27dbc0fc56e4;"><path d="M44.64-58.32L44.64-58.32L44.64-58.32Q44.48-58.72 44.48-59.16L44.48-59.16L44.48-59.16Q44.48-59.60 44.48-60L44.48-60L44.48-60Q44.48-62.16 46.28-63.48L46.28-63.48L46.28-63.48Q48.08-64.80 50.72-64.80L50.72-64.80L50.72-64.80Q53.20-64.80 54.76-63.32L54.76-63.32L54.76-63.32Q56.32-61.84 56.32-59.28L56.32-59.28L56.32-59.28Q56.32-57.20 54.52-55.92L54.52-55.92L54.52-55.92Q52.72-54.64 49.92-54.64L49.92-54.64L49.92-54.64Q48-54.64 46.52-55.60L46.52-55.60L46.52-55.60Q45.04-56.56 44.64-58.32" fill="#6418c3" stroke="none" stroke-width="none" transform="translate(-131.05999755859375,19.936874139959166)" style="fill: rgb(15, 31, 62);"></path></g><g class="path" style="opacity: 1; transform-origin: -54.74px -12.5431px; animation: 0.70922s linear -0.297872s infinite normal forwards running blink-85236a03-5574-4c42-b001-27dbc0fc56e4;"><path d="M80.24-50.72L80.24-50.72L80.24-4.08L86.72-2.88L86.72-2.88Q87.04-1.60 86.72 0.32L86.72 0.32L86.72 0.32Q81.68 0.08 76.40 0.08L76.40 0.08L76.40 0.08Q72.72 0.08 66 0.24L66 0.24L66 0.24Q65.52-1.28 66-2.88L66-2.88L72.32-3.76L72.32-3.76Q72.64-8.16 72.64-13.92L72.64-13.92L72.64-59.76L66.08-60.56L66.08-60.56Q65.76-61.76 66.08-63.60L66.08-63.60L66.08-63.60Q71.60-64 79.84-65.28L79.84-65.28L79.84-65.28Q80.56-64.48 80.64-63.68L80.64-63.68L80.64-63.68Q80.24-61.60 80.24-50.72" fill="#6418c3" stroke="none" stroke-width="none" transform="translate(-131.05999755859375,19.936874139959166)" style="fill: rgb(68, 153, 214);"></path></g><g class="path" style="opacity: 1; transform-origin: -29.94px -2.06313px; animation: 0.70922s linear -0.255319s infinite normal forwards running blink-85236a03-5574-4c42-b001-27dbc0fc56e4;"><path d="M105.04-29.76L105.04-29.76L105.04-4.08L111.52-2.88L111.52-2.88Q111.60-2.48 111.64-2.16L111.64-2.16L111.64-2.16Q111.68-1.84 111.68-1.44L111.68-1.44L111.68-1.44Q111.68-1.04 111.64-0.60L111.64-0.60L111.64-0.60Q111.60-0.16 111.52 0.32L111.52 0.32L111.52 0.32Q106.48 0.08 101.20 0.08L101.20 0.08L101.20 0.08Q99.36 0.08 96.76 0.12L96.76 0.12L96.76 0.12Q94.16 0.16 90.80 0.24L90.80 0.24L90.80 0.24Q90.56-0.48 90.56-1.28L90.56-1.28L90.56-1.28Q90.56-2 90.80-2.88L90.80-2.88L97.12-3.76L97.12-3.76Q97.28-6 97.36-8.52L97.36-8.52L97.36-8.52Q97.44-11.04 97.44-13.92L97.44-13.92L97.44-30.96L97.44-30.96Q97.44-36.24 97.20-38.80L97.20-38.80L90.88-39.60L90.88-39.60Q90.72-40 90.72-40.96L90.72-40.96L90.72-40.96Q90.72-41.36 90.72-41.76L90.72-41.76L90.72-41.76Q90.72-42.16 90.88-42.64L90.88-42.64L90.88-42.64Q96.32-42.96 104.64-44.32L104.64-44.32L104.64-44.32Q105.36-43.52 105.44-42.72L105.44-42.72L105.44-42.72Q105.04-40.48 105.04-29.76" fill="#6418c3" stroke="none" stroke-width="none" transform="translate(-131.05999755859375,19.936874139959166)" style="fill: rgb(100, 24, 195);"></path></g><g class="path" style="opacity: 1; transform-origin: -31.94px -39.7831px; animation: 0.70922s linear -0.212766s infinite normal forwards running blink-85236a03-5574-4c42-b001-27dbc0fc56e4;"><path d="M93.36-58.32L93.36-58.32L93.36-58.32Q93.20-58.72 93.20-59.16L93.20-59.16L93.20-59.16Q93.20-59.60 93.20-60L93.20-60L93.20-60Q93.20-62.16 95-63.48L95-63.48L95-63.48Q96.80-64.80 99.44-64.80L99.44-64.80L99.44-64.80Q101.92-64.80 103.48-63.32L103.48-63.32L103.48-63.32Q105.04-61.84 105.04-59.28L105.04-59.28L105.04-59.28Q105.04-57.20 103.24-55.92L103.24-55.92L103.24-55.92Q101.44-54.64 98.64-54.64L98.64-54.64L98.64-54.64Q96.72-54.64 95.24-55.60L95.24-55.60L95.24-55.60Q93.76-56.56 93.36-58.32" fill="#6418c3" stroke="none" stroke-width="none" transform="translate(-131.05999755859375,19.936874139959166)" style="fill: rgb(255, 46, 46);"></path></g><g class="path" style="opacity: 1; transform-origin: 0.340004px -2.06313px; animation: 0.70922s linear -0.170213s infinite normal forwards running blink-85236a03-5574-4c42-b001-27dbc0fc56e4;"><path d="M130.24-42.72L130.24-42.72L130.08-34.48L130.08-34.48Q132.08-38.16 135.64-41.24L135.64-41.24L135.64-41.24Q139.20-44.32 142.40-44.32L142.40-44.32L142.40-44.32Q144.88-44.32 146.80-43.76L146.80-43.76L146.80-43.76Q147.44-42.72 147.44-41.04L147.44-41.04L147.44-41.04Q147.44-38.40 146.32-35.76L146.32-35.76L146.32-35.76Q143.44-36.56 140.80-36.56L140.80-36.56L140.80-36.56Q134.24-36.56 130-30.16L130-30.16L129.84-16.16L129.84-4.08L138.72-2.88L138.72-2.88Q139.04-1.60 138.72 0.32L138.72 0.32L138.72 0.32Q133.68 0.08 127.20 0.08L127.20 0.08L127.20 0.08Q122.32 0.08 115.60 0.24L115.60 0.24L115.60 0.24Q115.12-1.28 115.60-2.88L115.60-2.88L121.92-3.76L121.92-3.76Q122.24-8.16 122.24-13.92L122.24-13.92L122.24-35.84L122.24-35.84Q122.24-37.44 122-38.80L122-38.80L115.68-39.60L115.68-39.60Q115.36-40.80 115.68-42.64L115.68-42.64L115.68-42.64Q121.20-43.04 129.44-44.32L129.44-44.32L129.44-44.32Q130.16-43.52 130.24-42.72" fill="#6418c3" stroke="none" stroke-width="none" transform="translate(-131.05999755859375,19.936874139959166)" style="fill: rgb(15, 31, 62);"></path></g><g class="path" style="opacity: 1; transform-origin: 29.66px -2.06313px; animation: 0.70922s linear -0.12766s infinite normal forwards running blink-85236a03-5574-4c42-b001-27dbc0fc56e4;"><path d="M164.64-29.76L164.64-29.76L164.64-4.08L171.12-2.88L171.12-2.88Q171.20-2.48 171.24-2.16L171.24-2.16L171.24-2.16Q171.28-1.84 171.28-1.44L171.28-1.44L171.28-1.44Q171.28-1.04 171.24-0.60L171.24-0.60L171.24-0.60Q171.20-0.16 171.12 0.32L171.12 0.32L171.12 0.32Q166.08 0.08 160.80 0.08L160.80 0.08L160.80 0.08Q158.96 0.08 156.36 0.12L156.36 0.12L156.36 0.12Q153.76 0.16 150.40 0.24L150.40 0.24L150.40 0.24Q150.16-0.48 150.16-1.28L150.16-1.28L150.16-1.28Q150.16-2 150.40-2.88L150.40-2.88L156.72-3.76L156.72-3.76Q156.88-6 156.96-8.52L156.96-8.52L156.96-8.52Q157.04-11.04 157.04-13.92L157.04-13.92L157.04-30.96L157.04-30.96Q157.04-36.24 156.80-38.80L156.80-38.80L150.48-39.60L150.48-39.60Q150.32-40 150.32-40.96L150.32-40.96L150.32-40.96Q150.32-41.36 150.32-41.76L150.32-41.76L150.32-41.76Q150.32-42.16 150.48-42.64L150.48-42.64L150.48-42.64Q155.92-42.96 164.24-44.32L164.24-44.32L164.24-44.32Q164.96-43.52 165.04-42.72L165.04-42.72L165.04-42.72Q164.64-40.48 164.64-29.76" fill="#6418c3" stroke="none" stroke-width="none" transform="translate(-131.05999755859375,19.936874139959166)" style="fill: rgb(68, 153, 214);"></path></g><g class="path" style="opacity: 1; transform-origin: 27.66px -39.7831px; animation: 0.70922s linear -0.0851064s infinite normal forwards running blink-85236a03-5574-4c42-b001-27dbc0fc56e4;"><path d="M152.96-58.32L152.96-58.32L152.96-58.32Q152.80-58.72 152.80-59.16L152.80-59.16L152.80-59.16Q152.80-59.60 152.80-60L152.80-60L152.80-60Q152.80-62.16 154.60-63.48L154.60-63.48L154.60-63.48Q156.40-64.80 159.04-64.80L159.04-64.80L159.04-64.80Q161.52-64.80 163.08-63.32L163.08-63.32L163.08-63.32Q164.64-61.84 164.64-59.28L164.64-59.28L164.64-59.28Q164.64-57.20 162.84-55.92L162.84-55.92L162.84-55.92Q161.04-54.64 158.24-54.64L158.24-54.64L158.24-54.64Q156.32-54.64 154.84-55.60L154.84-55.60L154.84-55.60Q153.36-56.56 152.96-58.32" fill="#6418c3" stroke="none" stroke-width="none" transform="translate(-131.05999755859375,19.936874139959166)" style="fill: rgb(100, 24, 195);"></path></g><g class="path" style="opacity: 1; transform-origin: 67.78px -2.06313px; animation: 0.70922s linear -0.0425532s infinite normal forwards running blink-85236a03-5574-4c42-b001-27dbc0fc56e4;"><path d="M208.48-13.92L208.48-28.56L208.48-28.56Q208.48-34.72 206.84-37.20L206.84-37.20L206.84-37.20Q205.20-39.68 201.36-39.68L201.36-39.68L201.36-39.68Q195.44-39.68 189.44-30.80L189.44-30.80L189.44-4.08L195.92-2.88L195.92-2.88Q196.24-1.60 195.92 0.32L195.92 0.32L195.92 0.32Q190.88 0.08 185.60 0.08L185.60 0.08L185.60 0.08Q181.92 0.08 175.20 0.24L175.20 0.24L175.20 0.24Q174.72-1.28 175.20-2.88L175.20-2.88L181.52-3.76L181.52-3.76Q181.84-8.16 181.84-13.92L181.84-13.92L181.84-35.84L181.84-35.84Q181.84-37.44 181.60-38.80L181.60-38.80L175.28-39.60L175.28-39.60Q174.96-40.80 175.28-42.64L175.28-42.64L175.28-42.64Q180.80-43.04 189.04-44.32L189.04-44.32L189.04-44.32Q189.76-43.52 189.84-42.72L189.84-42.72L189.84-42.72Q189.44-40.64 189.44-35.60L189.44-35.60L189.44-35.60Q195.76-44.32 203.68-44.32L203.68-44.32L203.68-44.32Q216.08-44.32 216.08-32.56L216.08-32.56L216.08-4.08L222.56-2.88L222.56-2.88Q222.88-1.60 222.56 0.32L222.56 0.32L222.56 0.32Q217.52 0.08 212.24 0.08L212.24 0.08L212.24 0.08Q208.56 0.08 201.84 0.24L201.84 0.24L201.84 0.24Q201.36-1.28 201.84-2.88L201.84-2.88L208.16-3.76L208.16-3.76Q208.48-8.16 208.48-13.92L208.48-13.92" fill="#6418c3" stroke="none" stroke-width="none" transform="translate(-131.05999755859375,19.936874139959166)" style="fill: rgb(255, 46, 46);"></path></g><g class="path" style="opacity: 1; transform-origin: 114.66px 4.29688px; animation: 0.70922s linear 0s infinite normal forwards running blink-85236a03-5574-4c42-b001-27dbc0fc56e4;"><path d="M233.36 0.88L233.36 0.88L233.36 0.88Q234.08 1.20 234.56 2.24L234.56 2.24L234.56 2.24Q231.92 4.40 231.92 8.72L231.92 8.72L231.92 8.72Q231.92 12.56 235.44 14.88L235.44 14.88L235.44 14.88Q238.96 17.20 244.56 17.20L244.56 17.20L244.56 17.20Q250.32 17.20 254.16 15.08L254.16 15.08L254.16 15.08Q258 12.96 258 9.12L258 9.12L258 9.12Q258 4.96 256.48 3L256.48 3L256.48 3Q254.96 1.04 250.40 0.64L250.40 0.64L235.44-0.72L235.44-0.72Q232.96-1.04 231.32-3.32L231.32-3.32L231.32-3.32Q229.68-5.60 229.68-7.76L229.68-7.76L235.04-16.64L235.04-16.64Q231.36-18.72 229.48-22.16L229.48-22.16L229.48-22.16Q227.60-25.60 227.60-29.20L227.60-29.20L227.60-29.20Q227.60-36 232.64-40.16L232.64-40.16L232.64-40.16Q237.68-44.32 244.24-44.32L244.24-44.32L244.24-44.32Q250.56-44.32 255.36-40.96L255.36-40.96L255.36-40.96Q255.76-51.92 263.52-52.32L263.52-52.32L263.52-52.32Q265.60-51.84 265.60-48.88L265.60-48.88L265.60-48.88Q265.60-47.28 265.28-45.36L265.28-45.36L265.28-45.36Q262.16-45.12 260.16-43.32L260.16-43.32L260.16-43.32Q258.16-41.52 257.28-39.20L257.28-39.20L257.28-39.20Q261.28-35.20 261.28-29.20L261.28-29.20L261.28-29.20Q261.28-22.88 256.16-18.68L256.16-18.68L256.16-18.68Q251.04-14.48 244.24-14.48L244.24-14.48L244.24-14.48Q240.64-14.48 237.76-15.44L237.76-15.44L235.04-8.32L254.96-6.32L254.96-6.32Q259.60-5.76 262.04-2.92L262.04-2.92L262.04-2.92Q264.48-0.08 264.48 4.48L264.48 4.48L264.48 4.48Q264.48 12.48 258.72 16.76L258.72 16.76L258.72 16.76Q252.96 21.04 243.12 21.04L243.12 21.04L243.12 21.04Q234.96 21.04 230.40 18.08L230.40 18.08L230.40 18.08Q225.84 15.12 225.84 10.16L225.84 10.16L225.84 10.16Q225.84 6.80 228.00 4.20L228.00 4.20L228.00 4.20Q230.16 1.60 233.36 0.88zM234.80-29.20L234.80-29.20L234.80-29.20Q234.80-24.56 237.40-21.28L237.40-21.28L237.40-21.28Q240.00-18 244.32-18L244.32-18L244.32-18Q248.56-18 251.28-21.24L251.28-21.24L251.28-21.24Q254.00-24.48 254.00-29.20L254.00-29.20L254.00-29.20Q254.00-34.32 251.32-37.72L251.32-37.72L251.32-37.72Q248.64-41.12 244.32-41.12L244.32-41.12L244.32-41.12Q240.24-41.12 237.52-37.68L237.52-37.68L237.52-37.68Q234.80-34.24 234.80-29.20" fill="#6418c3" stroke="none" stroke-width="none" transform="translate(-131.05999755859375,19.936874139959166)" style="fill: rgb(15, 31, 62);"></path></g></g>
</g>
</g>
<style id="blink-85236a03-5574-4c42-b001-27dbc0fc56e4" data-anikit="">@keyframes blink-85236a03-5574-4c42-b001-27dbc0fc56e4 {
  0% { opacity: 1; }
  49.75% { opacity: 1; }
  50.25% { opacity: 0; }
  99.5% { opacity: 0; }
  100% { opacity: 1; }
}</style></svg>